<?xml version="1.0" encoding="UTF-8" standalone="no"?>
<!-- Created with Inkscape (http://www.inkscape.org/) -->

<svg
   version="1.1"
   id="svg1"
   width="96"
   height="96"
   viewBox="0 0 96 96"
   sodipodi:docname="signature.png"
   inkscape:export-filename="signature.svg"
   inkscape:export-xdpi="96"
   inkscape:export-ydpi="96"
   xmlns:inkscape="http://www.inkscape.org/namespaces/inkscape"
   xmlns:sodipodi="http://sodipodi.sourceforge.net/DTD/sodipodi-0.dtd"
   xmlns="http://www.w3.org/2000/svg"
   xmlns:svg="http://www.w3.org/2000/svg">
  <defs
     id="defs1" />
  <sodipodi:namedview
     id="namedview1"
     pagecolor="#ffffff"
     bordercolor="#000000"
     borderopacity="0.25"
     inkscape:showpageshadow="2"
     inkscape:pageopacity="0.0"
     inkscape:pagecheckerboard="0"
     inkscape:deskcolor="#d1d1d1" />
  <g
     inkscape:groupmode="layer"
     inkscape:label="Image"
     id="g1">
    <path
       style="fill:#000000"
       d="M 7.2877065,66.96 C 7.0173894,66.652 6.6333722,65.442448 6.4343349,64.272107 6.0699485,62.129512 6.3515593,59.964265 7.3102758,57.537179 c 0.9590389,-2.427901 4.1322312,-5.527215 6.9687592,-6.80651 0.901469,-0.406569 1.71868,-0.868087 1.816026,-1.025595 0.09734,-0.157509 -0.894112,-1.632053 -2.203238,-3.276766 -1.309127,-1.644712 -2.462366,-3.367919 -2.562754,-3.829347 -0.100388,-0.461429 -0.23445,-1.00977 -0.297916,-1.218537 -0.215747,-0.709687 1.105677,-1.936694 2.454405,-2.279038 1.073961,-0.2726 1.530987,-0.244472 2.274445,0.139985 1.185869,0.613237 1.615612,1.709873 2.321162,5.92323 l 0.57012,3.404601 1.104801,-0.461616 c 1.622181,-0.67779 3.275413,-1.811753 3.279953,-2.249742 0.0022,-0.210185 0.338009,-0.770509 0.74629,-1.245164 0.729645,-0.848263 0.756983,-0.853407 1.6,-0.301041 0.471719,0.309082 0.857671,0.761406 0.857671,1.005164 0,0.767226 1.412549,0.484133 2.488684,-0.498764 0.732678,-0.669198 1.043265,-1.248338 1.072579,-2 0.0227,-0.581922 0.09052,-1.418039 0.150724,-1.858039 0.0602,-0.44 0.175306,-1.664 0.255785,-2.72 0.143191,-1.878865 0.367824,-3.278211 0.706281,-4.399759 0.318667,-1.055968 1.324155,-0.05434 1.69872,1.692197 0.583608,2.72127 0.438415,3.73685 -0.884479,6.186639 -1.221053,2.261194 -1.229477,2.301445 -0.973874,4.65352 0.460682,4.239232 0.47341,4.265988 1.913615,4.022667 1.352808,-0.228556 3.348878,-1.121467 5.995657,-2.682064 2.035797,-1.200349 2.228366,-1.215321 2.484902,-0.1932 0.110433,0.44 0.381082,0.8 0.601442,0.8 0.519572,0 2.585257,-1.3838 4.009964,-2.686271 1.671144,-1.527764 3.319885,-2.140026 6.20783,-2.305284 1.558827,-0.0892 2.871717,-0.342841 3.330452,-0.643415 0.977652,-0.640583 1.209008,-0.388354 0.556803,0.607037 -0.568041,0.86694 -1.768287,1.174135 -4.655085,1.191439 -2.328087,0.01396 -3.867442,0.767398 -6.39629,3.13069 -1.141959,1.067199 -2.410089,2.004172 -2.818065,2.082161 C 41.266213,49.833886 40.32,49.22081 40.32,48.617143 c 0,-0.498072 -1.148056,-0.331853 -1.956845,0.283318 -0.419735,0.319254 -1.601662,1.046415 -2.626504,1.615914 -1.54499,0.858541 -2.144394,1.019064 -3.508298,0.939538 L 30.583405,51.36 30.185666,49.44 C 29.966909,48.384 29.776815,47.016 29.763233,46.4 l -0.02469,-1.12 -0.972115,1.189785 c -0.669086,0.818906 -1.33472,1.257811 -2.135357,1.408011 -0.639784,0.120025 -1.831677,0.698448 -2.648652,1.285386 C 22.401551,50.298921 22.08,50.276821 22.08,49.03243 c 0,-0.618209 -0.116671,-0.732872 -0.56,-0.550361 -0.308,0.126798 -0.812,0.302999 -1.12,0.391558 -0.308,0.08856 -0.56,0.355156 -0.56,0.592436 0,0.40417 -1.248714,1.286939 -1.6,1.131108 -0.088,-0.03904 -0.202709,0.18863 -0.254909,0.505926 -0.123268,0.749282 -0.97296,3.594337 -1.319133,4.416903 -0.148138,0.352 -0.537026,1.288 -0.864196,2.08 -1.448129,3.505568 -5.311259,8.96 -6.3459671,8.96 -0.2350271,0 -0.510209,0.216 -0.6115153,0.48 -0.2468029,0.643158 -0.9537811,0.606823 -1.5565731,-0.08 z M 9.171469,65.721501 C 9.7718839,65.630185 13.12,61.790019 13.12,61.192681 c 0,-0.168504 0.298958,-0.686435 0.664351,-1.150957 0.365393,-0.464521 0.917837,-1.564386 1.227655,-2.444143 0.309817,-0.879756 0.658859,-1.695113 0.775649,-1.811902 C 15.904445,55.668889 16,55.266133 16,54.890667 16,54.5152 16.124422,54.0712 16.276493,53.904 c 0.310985,-0.341924 1.094878,-3.359296 0.918535,-3.535638 -0.06258,-0.06258 -1.185068,0.422098 -2.494409,1.077072 C 11.824168,52.884327 9.4045769,55.198127 8.2646579,57.6 7.1541606,59.93988 6.9303406,61.430297 7.3605106,63.620716 7.8543939,66.135562 7.933509,66.319276 8.3977399,66.029281 8.618983,65.891075 8.967161,65.752574 9.171469,65.721501 Z M 17.475927,47.44 c -0.09621,-0.484 -0.329332,-1.816 -0.518053,-2.96 -0.361563,-2.191752 -1.142771,-4.039683 -1.817168,-4.298474 -0.22128,-0.08491 -0.946462,0.03695 -1.611516,0.270796 -1.10363,0.388066 -1.206204,0.524296 -1.174988,1.560519 0.0358,1.188533 0.567557,2.035812 2.969587,4.731658 1.601895,1.797838 2.424074,2.06354 2.152138,0.695501 z m 6.936793,-0.4 C 24.50477,46.688 24.449565,46.4 24.290042,46.4 24.130519,46.4 24,46.460223 24,46.533828 c 0,0.07361 -0.08741,0.361605 -0.194236,0.64 -0.10683,0.278395 -0.05163,0.506172 0.122678,0.506172 0.174302,0 0.392228,-0.288 0.484278,-0.64 z m 7.509162,-8.259585 c 0.08336,-0.867492 0.01023,-1.664599 -0.162491,-1.771349 -0.357789,-0.221125 -1.138149,3.212255 -0.839815,3.694969 0.367473,0.594584 0.849168,-0.329881 1.002306,-1.92362 z m 38.510021,9.879302 c -0.344097,-0.212664 -0.352981,-0.48684 -0.04592,-1.417238 0.209391,-0.634461 0.514205,-1.236069 0.677365,-1.336907 C 71.50717,45.631273 71.421587,43.570913 70.88,41.491619 70.085649,38.441898 70.391314,35.52 71.504703,35.52 c 1.285872,0 1.748574,2.64527 1.317695,7.533277 -0.189146,2.14572 -0.156234,2.30002 0.689488,3.232535 0.919621,1.013999 2.224844,1.53533 2.856333,1.140873 0.789268,-0.493013 2.628118,-4.791214 3.930234,-9.186685 0.517192,-1.745849 0.667491,-4.446581 0.382882,-6.88 -0.281602,-2.407713 -0.107236,-3.264971 0.507192,-2.493562 0.181171,0.227459 0.710579,2.75132 1.176463,5.608579 0.868262,5.32504 1.039756,5.947168 2.096373,7.604983 0.730663,1.1464 0.81276,1.76 0.235479,1.76 -0.804435,0 -2.130173,-2.556336 -2.506026,-4.832212 C 81.990281,37.793505 81.691311,36.8 81.526437,36.8 c -0.164874,0 -0.240755,0.177047 -0.168624,0.393438 0.07213,0.216392 -0.434286,1.980392 -1.12537,3.92 C 79.54136,43.053047 78.897616,44.928 78.801902,45.28 c -0.09571,0.352 -0.675904,1.262941 -1.289311,2.024313 -1.271614,1.578352 -1.838093,1.601422 -4.033974,0.164283 -0.993384,-0.650141 -1.296065,-0.72616 -1.5151,-0.380522 -0.150544,0.237559 -0.275922,0.594294 -0.278617,0.792744 -0.0079,0.582616 -0.786985,1.06691 -1.252997,0.778899 z M 72,38.56 c 0,-0.44 -0.144,-0.8 -0.32,-0.8 -0.357494,0 -0.438625,1.054708 -0.106667,1.386667 C 71.926082,39.499416 72,39.397779 72,38.56 Z m 16.96,0.8 c 0,-0.176 0.144,-0.32 0.32,-0.32 0.176,0 0.32,0.144 0.32,0.32 0,0.176 -0.144,0.32 -0.32,0.32 -0.176,0 -0.32,-0.144 -0.32,-0.32 z"
       id="path1" />
  </g>
</svg>
